<?xml version="1.0" encoding="UTF-8" ?>
<!DOCTYPE svg PUBLIC "-//W3C//DTD SVG 1.1//EN" "http://www.w3.org/Graphics/SVG/1.1/DTD/svg11.dtd">
<svg width="856pt" height="627pt" viewBox="0 0 856 627" version="1.1" xmlns="http://www.w3.org/2000/svg">
<g id="#ffffffff">
<path fill="#ffffff" opacity="1.00" d=" M 357.22 305.17 C 365.06 301.34 374.73 302.53 382.04 307.07 C 382.00 308.74 381.99 310.42 381.98 312.10 C 378.62 310.62 375.29 308.90 371.58 308.54 C 364.97 306.72 357.35 310.00 354.15 316.07 C 350.61 322.36 351.67 331.02 357.16 335.87 C 362.51 340.83 370.59 340.68 376.98 337.99 C 377.01 334.99 377.00 331.99 376.99 329.00 C 374.36 329.00 371.72 329.01 369.09 328.97 C 369.10 327.32 369.10 325.67 369.10 324.03 C 373.70 323.98 378.30 323.99 382.90 324.02 C 382.86 329.97 382.91 335.92 382.88 341.87 C 376.47 344.94 369.20 345.61 362.22 344.67 C 353.12 342.98 345.48 334.43 345.99 324.99 C 345.20 316.86 350.06 308.86 357.22 305.17 Z" />
<path fill="#ffffff" opacity="1.00" d=" M 404.47 309.58 C 407.89 301.80 418.43 301.42 425.00 305.10 C 424.99 307.49 425.00 309.88 425.00 312.27 C 421.55 309.34 416.44 306.54 412.03 309.03 C 409.22 309.93 408.97 313.47 410.11 315.77 C 413.93 320.92 421.37 321.74 424.77 327.33 C 428.78 332.78 426.65 341.50 420.33 344.17 C 414.84 346.19 408.35 344.90 404.02 340.91 C 404.00 338.55 403.96 336.19 404.04 333.84 C 406.55 336.08 408.84 338.88 412.35 339.51 C 416.33 341.33 422.15 337.69 420.87 333.07 C 418.55 326.84 410.87 325.92 406.81 321.22 C 403.43 318.38 403.54 313.49 404.47 309.58 Z" />
<path fill="#ffffff" opacity="1.00" d=" M 391.08 304.04 C 393.05 304.00 395.02 303.99 397.00 304.01 C 397.00 317.34 397.00 330.67 397.00 344.00 C 395.02 344.01 393.05 344.00 391.08 343.96 C 391.13 330.65 391.13 317.35 391.08 304.04 Z" />
</g>
<g id="#5b9bd5ff">
<path fill="#5b9bd5" opacity="1.00" d=" M 299.12 72.15 C 300.70 71.95 302.31 71.97 303.91 72.06 C 306.37 83.62 308.06 95.35 310.82 106.82 C 309.25 107.00 307.67 107.02 306.10 106.93 C 305.35 103.64 304.95 100.29 304.13 97.02 C 300.41 96.99 296.69 96.96 292.96 97.04 C 291.57 100.31 290.11 103.54 288.86 106.86 C 287.20 107.01 285.54 107.03 283.89 106.95 C 288.81 95.28 294.17 83.81 299.12 72.15 M 300.45 78.98 C 298.91 83.38 296.63 87.53 295.33 92.00 C 297.97 92.01 300.61 92.01 303.25 91.98 C 302.25 87.67 302.08 83.06 300.45 78.98 Z" />
<path fill="#5b9bd5" opacity="1.00" d=" M 354.40 72.18 C 355.93 72.03 357.47 71.96 359.02 71.97 C 358.68 76.99 357.50 81.90 357.12 86.92 C 359.65 83.79 364.34 81.63 368.10 83.85 C 371.59 86.99 369.98 92.03 369.54 96.05 C 368.83 99.66 368.73 103.36 367.95 106.95 C 366.46 106.99 364.97 107.02 363.50 107.04 C 364.01 100.66 365.67 94.37 365.51 87.95 C 365.14 85.72 362.45 85.63 360.98 86.81 C 358.68 88.61 355.97 90.77 355.93 93.97 C 355.67 98.26 354.52 102.44 354.55 106.75 C 352.96 107.02 351.34 107.04 349.74 107.03 C 351.14 95.39 353.21 83.83 354.40 72.18 Z" />
<path fill="#5b9bd5" opacity="1.00" d=" M 378.28 74.40 C 380.91 72.43 384.19 76.31 381.68 78.50 C 378.98 80.83 375.39 76.44 378.28 74.40 Z" />
<path fill="#5b9bd5" opacity="1.00" d=" M 388.35 79.15 C 389.88 79.03 391.42 78.97 392.97 78.97 C 392.78 80.63 392.62 82.29 392.48 83.96 C 393.90 84.00 395.33 84.07 396.76 84.17 C 396.72 84.79 396.64 86.05 396.60 86.67 C 395.03 87.05 393.40 87.03 391.80 87.06 C 390.83 92.36 389.78 97.67 389.18 103.02 C 389.95 106.31 393.76 104.53 395.49 103.12 C 396.08 104.52 395.60 106.06 395.57 107.52 C 391.74 108.12 385.50 109.15 384.43 104.03 C 385.21 98.32 386.19 92.63 387.24 86.96 C 385.87 86.94 384.52 87.02 383.22 87.45 C 383.23 86.35 383.25 85.26 383.27 84.17 C 384.83 84.05 386.39 83.98 387.96 83.95 C 388.09 82.35 388.23 80.75 388.35 79.15 Z" />
<path fill="#5b9bd5" opacity="1.00" d=" M 444.28 79.06 C 445.81 78.99 447.36 79.00 448.91 79.10 C 448.64 80.74 448.35 82.38 448.00 84.01 C 449.46 84.00 450.94 84.00 452.42 84.00 C 452.31 84.74 452.09 86.21 451.97 86.95 C 450.51 87.21 448.64 86.49 447.45 87.46 C 446.54 92.63 445.62 97.82 444.83 103.01 C 445.69 106.57 449.76 104.17 451.70 103.11 C 451.64 104.13 451.51 106.18 451.44 107.20 C 448.65 108.23 445.39 108.36 442.58 107.37 C 440.44 106.46 439.94 103.98 440.40 101.92 C 441.36 96.96 442.00 91.95 442.98 87.00 C 441.64 87.00 440.31 86.99 438.99 86.99 C 439.02 86.29 439.07 84.90 439.10 84.20 C 440.60 84.08 442.11 83.94 443.61 83.73 C 443.82 82.17 444.05 80.61 444.28 79.06 Z" />
<path fill="#5b9bd5" opacity="1.00" d=" M 322.68 84.73 C 324.45 82.95 326.92 82.85 329.28 82.98 C 329.32 83.72 329.41 85.20 329.45 85.94 C 324.03 84.75 320.06 90.15 319.91 95.02 C 319.76 99.00 318.80 102.89 318.68 106.86 C 317.14 106.98 315.59 107.01 314.05 106.96 C 315.06 99.30 316.09 91.65 317.28 84.02 C 319.12 83.85 320.95 84.05 322.68 84.73 Z" />
<path fill="#5b9bd5" opacity="1.00" d=" M 334.29 86.20 C 337.91 82.67 343.31 82.79 348.00 83.15 C 347.83 84.27 347.66 85.38 347.48 86.50 C 342.96 85.07 337.52 87.06 335.34 91.35 C 333.01 95.18 332.93 101.23 336.81 104.07 C 339.84 106.05 343.25 104.20 346.21 103.08 C 346.03 104.35 345.84 105.62 345.66 106.89 C 341.02 108.60 334.73 108.90 331.40 104.59 C 327.29 99.02 328.86 90.36 334.29 86.20 Z" />
<path fill="#5b9bd5" opacity="1.00" d=" M 398.15 95.97 C 397.69 89.47 403.00 81.90 410.13 83.04 C 415.45 83.24 417.95 89.34 417.01 93.98 C 412.25 94.04 407.50 93.97 402.74 94.01 C 402.32 97.69 402.58 102.58 406.39 104.40 C 409.77 106.09 413.02 103.40 416.00 102.05 C 415.63 103.33 416.16 105.09 415.10 106.07 C 411.77 108.16 407.49 108.58 403.77 107.40 C 399.53 105.36 397.61 100.47 398.15 95.97 M 403.56 91.01 C 406.73 90.99 409.92 91.01 413.10 91.00 C 412.53 89.39 412.29 87.26 410.49 86.52 C 407.49 84.86 403.65 87.91 403.56 91.01 Z" />
<path fill="#5b9bd5" opacity="1.00" d=" M 424.38 86.36 C 427.94 82.68 433.43 82.81 438.16 83.12 C 438.18 84.32 437.95 85.48 437.45 86.60 C 432.36 84.65 426.35 88.05 424.76 93.13 C 423.13 97.08 423.88 103.18 428.49 104.68 C 431.34 105.76 434.04 103.65 436.79 103.14 C 436.27 104.59 436.43 106.90 434.59 107.38 C 430.37 108.44 425.04 108.60 421.94 105.00 C 417.47 99.52 418.92 90.66 424.38 86.36 Z" />
<path fill="#5b9bd5" opacity="1.00" d=" M 485.91 84.69 C 487.92 83.21 490.32 82.65 492.79 83.11 C 492.82 83.79 492.88 85.16 492.90 85.85 C 488.55 85.08 485.25 88.26 483.88 92.05 C 483.13 97.01 482.88 102.04 481.97 106.96 C 480.50 106.99 479.02 107.02 477.56 107.04 C 478.33 99.41 480.01 91.88 480.44 84.23 C 482.28 83.82 484.17 83.88 485.91 84.69 Z" />
<path fill="#5b9bd5" opacity="1.00" d=" M 493.15 96.01 C 492.70 89.52 497.94 81.94 505.06 83.04 C 510.41 83.22 512.99 89.32 511.99 93.99 C 507.24 94.03 502.49 93.96 497.75 94.02 C 497.34 97.59 497.56 101.98 500.86 104.16 C 504.34 106.26 507.89 103.55 511.00 102.04 C 510.85 103.29 510.71 104.54 510.58 105.79 C 507.08 108.08 502.57 108.68 498.61 107.35 C 494.51 105.22 492.61 100.47 493.15 96.01 M 498.50 91.00 C 501.70 91.00 504.90 91.01 508.10 91.00 C 507.53 89.41 507.31 87.30 505.54 86.56 C 502.52 84.81 498.73 87.89 498.50 91.00 Z" />
<path fill="#5b9bd5" opacity="1.00" d=" M 376.59 84.53 C 377.67 83.34 379.84 84.31 381.33 83.99 C 380.20 91.65 379.36 99.38 378.02 106.99 C 376.57 107.00 375.12 107.01 373.68 107.03 C 374.40 99.50 375.87 92.06 376.59 84.53 Z" />
<path fill="#5b9bd5" opacity="1.00" d=" M 456.30 84.02 C 457.83 83.99 459.37 84.02 460.91 84.12 C 460.09 89.08 459.42 94.07 458.69 99.05 C 458.61 101.14 458.10 104.66 461.01 105.00 C 463.93 104.42 466.11 102.02 467.89 99.77 C 468.60 94.53 469.03 89.22 470.02 84.03 C 471.48 84.01 472.95 84.00 474.43 83.99 C 473.53 91.57 472.01 99.08 471.51 106.70 C 469.97 107.07 468.39 107.02 466.84 107.02 C 466.86 106.43 466.90 105.25 466.92 104.66 C 464.86 106.22 462.74 108.12 459.98 108.02 C 456.74 108.41 453.89 105.23 454.17 102.10 C 454.11 96.01 455.60 90.04 456.30 84.02 Z" />
<path fill="#5b9bd5" opacity="1.00" d=" M 394.22 142.83 C 394.48 143.09 395.02 143.62 395.28 143.88 C 410.23 169.88 425.54 195.69 440.31 221.80 C 454.86 222.27 469.44 221.87 484.00 222.00 C 513.61 222.01 543.23 221.97 572.85 222.02 C 551.09 259.49 529.23 296.91 507.46 334.38 C 506.13 336.10 507.86 337.87 508.64 339.38 C 529.12 374.56 549.50 409.80 569.94 445.01 C 571.21 447.33 572.80 449.49 573.75 451.99 C 528.82 452.03 483.89 451.96 438.97 452.02 C 423.96 477.63 409.18 503.38 394.08 528.93 C 389.26 521.63 385.18 513.81 380.66 506.30 C 370.24 488.41 359.81 470.53 349.42 452.64 C 348.41 451.38 346.39 452.28 345.00 452.02 C 301.72 451.96 258.43 452.03 215.15 451.98 C 237.14 413.33 259.92 375.10 281.88 336.43 C 259.43 298.42 237.43 260.14 215.13 222.04 C 257.75 221.95 300.36 222.03 342.98 222.00 C 344.89 221.99 346.82 222.09 348.72 221.77 C 363.60 195.30 379.28 169.27 394.22 142.83 M 392.39 150.45 C 378.73 174.02 365.09 197.59 351.37 221.12 C 338.96 242.17 326.84 263.42 314.51 284.52 C 304.12 302.64 293.39 320.58 283.18 338.78 C 266.83 366.91 250.52 395.06 234.19 423.21 C 229.18 432.21 223.51 440.88 218.91 450.09 C 261.93 450.37 304.97 450.07 347.99 450.24 C 378.66 450.35 409.34 450.35 440.01 450.24 C 483.36 450.08 526.73 450.35 570.08 450.10 C 569.28 447.74 567.84 445.69 566.62 443.55 C 546.30 408.57 526.03 373.55 505.71 338.57 C 499.21 326.79 492.19 315.28 485.56 303.57 C 469.50 276.16 453.79 248.52 437.61 221.20 C 423.45 196.54 408.94 172.06 394.91 147.32 C 393.40 147.59 393.19 149.41 392.39 150.45 Z" />
<path fill="#5b9bd5" opacity="1.00" d=" M 128.32 472.10 C 135.34 471.59 143.38 472.06 148.60 477.44 C 152.88 481.40 153.48 487.65 152.82 493.13 C 152.12 500.14 146.11 506.10 139.10 506.78 C 133.89 507.23 128.66 506.88 123.45 507.02 C 124.93 495.37 126.74 483.74 128.32 472.10 M 132.54 477.34 C 131.35 485.56 130.41 493.83 129.00 502.02 C 133.26 502.07 137.65 502.07 141.69 500.60 C 149.29 496.92 150.27 484.46 143.08 479.85 C 140.05 477.87 136.13 476.51 132.54 477.34 Z" />
<path fill="#5b9bd5" opacity="1.00" d=" M 532.16 472.06 C 536.92 472.18 542.12 471.18 546.49 473.57 C 552.48 477.90 551.67 489.14 544.08 491.29 C 546.83 496.48 549.88 501.55 552.25 506.95 C 550.52 507.01 548.81 507.00 547.10 506.93 C 544.79 502.90 543.09 498.50 540.19 494.84 C 538.85 492.87 536.12 493.04 534.02 492.98 C 533.83 497.60 532.57 502.09 532.48 506.72 C 530.72 507.15 528.90 507.00 527.12 506.88 C 529.00 495.30 530.25 483.63 532.16 472.06 M 536.36 477.19 C 535.77 480.78 535.54 484.43 534.75 488.00 C 537.63 488.08 540.79 487.95 543.25 486.25 C 545.76 484.47 545.98 480.31 543.72 478.26 C 541.48 476.97 538.86 476.72 536.36 477.19 Z" />
<path fill="#5b9bd5" opacity="1.00" d=" M 759.08 474.11 C 762.55 472.34 764.59 478.25 761.00 478.99 C 758.00 479.98 756.70 475.50 759.08 474.11 Z" />
<path fill="#5b9bd5" opacity="1.00" d=" M 580.44 478.23 C 582.00 477.99 583.57 477.95 585.16 477.98 C 584.93 479.72 584.75 481.47 584.63 483.23 C 587.78 482.97 591.48 482.49 593.98 484.90 C 600.70 490.68 598.27 502.81 590.62 506.63 C 587.73 508.34 584.23 507.91 581.02 508.03 C 580.74 511.65 580.05 515.22 579.69 518.83 C 578.15 519.00 576.61 519.05 575.09 518.89 C 576.42 509.16 577.73 499.42 579.08 489.69 C 577.47 490.91 576.74 492.94 575.06 494.08 C 575.22 491.47 576.74 489.26 578.32 487.29 C 580.61 484.88 580.16 481.28 580.44 478.23 M 583.87 486.89 C 583.40 492.97 582.30 498.98 581.67 505.05 C 588.47 506.10 594.09 499.50 593.21 492.98 C 593.33 488.43 588.06 484.17 583.87 486.89 Z" />
<path fill="#5b9bd5" opacity="1.00" d=" M 185.12 479.01 C 186.69 478.96 188.27 478.99 189.83 479.25 C 189.35 480.79 188.99 482.37 188.75 483.98 C 190.17 483.99 191.59 484.00 193.02 484.02 C 192.96 484.75 192.85 486.21 192.80 486.95 C 191.22 486.97 189.64 487.00 188.06 487.03 C 187.63 492.10 186.39 497.05 185.69 502.09 C 185.31 503.55 186.56 505.08 188.06 505.09 C 189.60 504.51 191.05 503.74 192.58 503.13 C 192.32 504.65 192.02 506.17 191.67 507.68 C 188.17 507.90 182.97 509.11 181.24 505.02 C 180.94 498.93 183.15 493.05 183.52 487.00 C 182.52 487.00 180.53 487.02 179.54 487.02 C 179.65 486.29 179.88 484.82 179.99 484.09 C 181.39 484.03 182.79 483.99 184.19 483.94 C 184.44 482.28 184.76 480.64 185.12 479.01 Z" />
<path fill="#5b9bd5" opacity="1.00" d=" M 707.27 479.06 C 708.81 479.00 710.35 479.00 711.91 479.08 C 711.64 480.73 711.35 482.38 710.99 484.02 C 712.45 484.00 713.92 483.99 715.39 483.99 C 715.29 484.72 715.09 486.19 714.99 486.92 C 713.44 486.94 711.90 487.03 710.38 487.24 C 709.70 492.52 708.59 497.74 707.81 503.00 C 708.68 506.56 712.75 504.19 714.69 503.11 C 714.60 504.09 714.44 506.04 714.36 507.01 C 710.93 508.97 702.71 508.74 703.30 503.01 C 704.10 497.67 705.00 492.32 705.98 487.00 C 704.64 486.99 703.30 486.98 701.97 486.98 C 702.02 486.28 702.10 484.89 702.14 484.19 C 703.62 484.06 705.10 483.92 706.60 483.76 C 706.81 482.19 707.04 480.62 707.27 479.06 Z" />
<path fill="#5b9bd5" opacity="1.00" d=" M 745.28 479.05 C 746.82 479.00 748.37 479.01 749.93 479.10 C 749.64 480.73 749.34 482.37 748.99 484.00 C 750.47 483.99 751.97 483.99 753.47 484.00 C 753.34 484.73 753.08 486.20 752.95 486.94 C 751.41 486.95 749.89 487.03 748.39 487.23 C 747.69 492.50 746.60 497.71 745.82 502.98 C 746.75 506.63 750.68 504.16 752.72 503.00 C 752.60 504.44 752.49 505.90 752.37 507.35 C 749.32 508.03 745.75 508.64 742.94 506.96 C 740.95 505.77 741.13 503.13 741.52 501.17 C 742.47 496.47 743.00 491.69 743.99 487.00 C 742.64 486.99 741.30 486.98 739.96 486.98 C 740.01 486.27 740.12 484.87 740.17 484.17 C 741.63 484.05 743.10 483.92 744.58 483.79 C 744.81 482.20 745.04 480.62 745.28 479.05 Z" />
<path fill="#5b9bd5" opacity="1.00" d=" M 165.14 484.17 C 169.12 482.45 173.60 482.97 177.78 483.43 C 176.83 491.25 175.40 499.01 174.63 506.84 C 172.78 507.06 170.84 507.25 169.16 506.27 C 165.97 508.97 160.38 508.63 158.29 504.75 C 154.08 497.74 157.52 487.25 165.14 484.17 M 164.66 488.70 C 161.27 492.62 159.82 498.71 162.62 503.34 C 165.15 506.96 170.39 503.36 170.92 499.99 C 171.25 495.26 172.48 490.62 172.46 485.87 C 169.70 486.13 166.68 486.59 164.66 488.70 Z" />
<path fill="#5b9bd5" opacity="1.00" d=" M 203.16 484.17 C 207.13 482.45 211.60 482.98 215.78 483.42 C 214.85 491.22 213.38 498.96 212.66 506.79 C 210.82 507.09 208.87 507.28 207.21 506.27 C 204.34 508.53 199.66 508.83 197.13 505.90 C 191.64 499.05 195.11 487.39 203.16 484.17 M 202.67 488.68 C 199.27 492.61 197.80 498.75 200.65 503.37 C 203.19 506.94 208.37 503.36 208.92 500.02 C 209.25 495.28 210.48 490.62 210.47 485.86 C 207.70 486.13 204.71 486.59 202.67 488.68 Z" />
<path fill="#5b9bd5" opacity="1.00" d=" M 554.31 497.02 C 553.63 490.33 558.61 482.03 566.13 483.01 C 571.52 483.10 574.37 489.26 573.40 494.01 C 568.56 494.00 563.73 493.97 558.90 494.03 C 558.42 497.77 558.96 502.73 562.86 504.47 C 566.17 506.05 569.32 503.26 572.31 502.16 C 572.97 507.44 566.77 508.26 562.91 507.98 C 557.42 507.93 553.95 502.04 554.31 497.02 M 559.56 490.97 C 562.80 491.02 566.05 491.01 569.30 490.97 C 568.81 489.49 568.76 487.36 567.09 486.69 C 563.96 484.63 560.18 487.78 559.56 490.97 Z" />
<path fill="#5b9bd5" opacity="1.00" d=" M 609.47 484.97 C 611.42 483.20 614.12 482.45 616.68 483.28 C 616.71 483.89 616.78 485.13 616.81 485.75 C 613.22 485.46 609.89 487.03 608.41 490.41 C 606.32 495.62 606.98 501.51 605.72 506.96 C 604.29 506.98 602.88 507.02 601.47 507.06 C 601.91 499.42 603.74 491.84 604.31 484.18 C 606.08 484.04 608.11 483.44 609.47 484.97 Z" />
<path fill="#5b9bd5" opacity="1.00" d=" M 621.27 485.20 C 624.87 481.83 631.82 482.09 634.37 486.63 C 635.92 488.72 635.65 491.39 635.75 493.85 C 630.89 494.25 626.01 493.75 621.15 494.15 C 620.54 498.18 621.60 503.78 626.22 504.89 C 629.28 505.35 631.89 503.09 634.65 502.13 C 635.21 507.06 629.65 508.17 625.91 508.01 C 622.08 508.27 618.59 505.52 617.39 501.99 C 615.40 496.30 616.57 489.23 621.27 485.20 M 625.48 486.41 C 623.39 487.05 622.49 489.13 621.72 490.97 C 624.91 491.03 628.11 490.99 631.32 491.00 C 631.83 487.91 628.39 484.85 625.48 486.41 Z" />
<path fill="#5b9bd5" opacity="1.00" d=" M 643.34 483.45 C 646.72 482.42 650.39 483.13 653.53 484.63 C 653.62 486.07 653.70 487.51 653.78 488.97 C 650.62 488.02 646.23 483.68 643.74 487.99 C 643.05 492.04 648.12 493.15 650.25 495.70 C 654.15 498.71 653.35 505.69 648.72 507.54 C 645.34 508.54 641.63 507.92 638.53 506.34 C 636.37 505.75 638.09 503.27 638.17 501.90 C 640.65 502.57 642.53 504.62 645.14 505.00 C 647.55 505.03 649.03 502.18 647.87 500.14 C 645.78 497.24 641.97 496.08 640.16 492.92 C 638.13 489.70 639.57 484.64 643.34 483.45 Z" />
<path fill="#5b9bd5" opacity="1.00" d=" M 663.00 483.96 C 666.72 482.07 672.21 482.70 674.37 486.64 C 675.90 488.73 675.66 491.38 675.77 493.83 C 670.92 494.25 666.05 493.79 661.21 494.11 C 660.65 497.67 661.25 502.35 664.70 504.30 C 668.11 506.27 671.51 503.22 674.65 502.13 C 674.20 503.63 674.55 506.04 672.62 506.60 C 668.00 508.98 661.06 508.79 658.24 503.78 C 654.72 497.30 656.42 487.85 663.00 483.96 M 665.45 486.42 C 663.38 487.04 662.45 489.11 661.79 490.98 C 664.98 491.03 668.17 491.00 671.37 490.99 C 671.74 487.89 668.40 484.83 665.45 486.42 Z" />
<path fill="#5b9bd5" opacity="1.00" d=" M 686.16 486.07 C 688.80 483.63 692.74 481.83 696.21 483.69 C 699.37 486.15 699.00 490.51 698.60 494.05 C 697.81 498.30 697.27 502.59 696.65 506.87 C 695.13 506.98 693.61 507.00 692.10 506.96 C 692.77 501.31 693.67 495.69 694.32 490.05 C 694.57 488.21 693.44 485.80 691.30 486.08 C 688.67 486.93 686.78 489.12 685.09 491.19 C 684.36 496.42 683.78 501.68 682.84 506.88 C 681.36 506.97 679.89 507.02 678.43 507.05 C 679.25 499.44 680.78 491.89 681.38 484.26 C 683.26 484.05 686.74 482.93 686.16 486.07 Z" />
<path fill="#5b9bd5" opacity="1.00" d=" M 723.95 484.90 C 728.08 482.33 733.20 482.97 737.82 483.34 C 737.26 491.26 735.74 499.10 734.68 506.97 C 732.82 507.20 731.02 506.73 729.22 506.53 C 725.79 508.91 720.44 508.55 718.40 504.54 C 714.98 498.00 717.28 488.53 723.95 484.90 M 721.57 496.06 C 721.09 499.44 721.77 504.41 725.87 505.06 C 727.91 504.29 730.12 503.06 731.03 500.99 C 731.60 495.96 732.29 490.94 733.00 485.94 C 727.08 485.36 722.00 490.29 721.57 496.06 Z" />
<path fill="#5b9bd5" opacity="1.00" d=" M 772.25 483.39 C 775.36 482.56 779.26 482.77 781.40 485.51 C 784.47 488.84 784.03 493.71 783.52 497.86 C 782.46 502.86 778.64 508.33 772.96 508.02 C 769.18 508.43 765.86 505.69 764.89 502.15 C 762.95 495.33 765.20 486.32 772.25 483.39 M 774.21 486.26 C 772.08 487.11 770.92 489.28 770.10 491.29 C 768.95 494.99 767.92 499.31 770.00 502.90 C 770.77 504.08 772.20 505.59 773.76 504.76 C 777.31 503.54 778.47 499.38 779.11 496.05 C 779.21 493.34 779.64 490.37 778.14 487.94 C 777.48 486.59 775.65 485.50 774.21 486.26 Z" />
<path fill="#5b9bd5" opacity="1.00" d=" M 794.23 486.22 C 796.43 484.38 798.97 482.53 802.04 483.00 C 805.15 482.89 806.96 486.18 806.96 488.94 C 807.14 494.99 805.63 500.94 804.80 506.90 C 803.25 507.01 801.71 507.00 800.18 506.85 C 801.17 501.90 801.61 496.86 802.37 491.87 C 802.60 489.79 802.83 486.03 799.82 486.10 C 797.19 486.64 795.26 488.74 793.68 490.76 C 792.26 496.05 792.24 501.64 791.07 506.99 C 789.59 506.99 788.13 507.00 786.67 507.02 C 787.78 499.35 788.60 491.62 789.96 484.00 C 791.40 483.99 792.85 483.99 794.30 483.98 C 794.28 484.54 794.25 485.66 794.23 486.22 Z" />
<path fill="#5b9bd5" opacity="1.00" d=" M 757.28 484.09 C 758.80 484.00 760.34 483.99 761.88 484.06 C 760.75 491.66 759.71 499.28 758.67 506.90 C 757.14 506.97 755.62 507.00 754.12 506.97 C 755.08 499.34 756.23 491.72 757.28 484.09 Z" />
</g>
<g id="#e55853ff">
<path fill="#e55853" opacity="1.00" d=" M 392.39 150.45 C 393.19 149.41 393.40 147.59 394.91 147.32 C 408.94 172.06 423.45 196.54 437.61 221.20 C 436.43 221.51 435.24 221.72 434.04 221.82 C 410.36 221.80 386.69 221.86 363.02 221.80 C 359.13 221.72 355.14 222.37 351.37 221.12 C 365.09 197.59 378.73 174.02 392.39 150.45 Z" />
<path fill="#e55853" opacity="1.00" d=" M 112.42 203.52 C 116.46 202.48 121.15 202.75 124.43 205.60 C 128.68 209.50 129.47 215.63 128.95 221.10 C 128.56 229.46 122.97 238.79 114.09 239.92 C 107.61 241.21 101.67 236.01 100.36 229.90 C 98.40 219.96 102.26 207.37 112.42 203.52 M 115.13 208.15 C 109.17 209.42 106.12 215.59 105.04 221.07 C 104.45 225.21 104.29 230.20 107.69 233.25 C 111.19 236.35 116.67 234.82 119.41 231.47 C 123.47 226.72 125.11 219.94 123.82 213.86 C 123.04 209.99 119.02 207.22 115.13 208.15 Z" />
<path fill="#e55853" opacity="1.00" d=" M 607.41 204.24 C 613.73 203.56 620.79 203.92 626.05 207.92 C 635.58 214.94 634.26 232.30 623.34 237.29 C 616.83 240.18 609.50 238.58 602.61 239.01 C 604.26 227.43 606.14 215.86 607.41 204.24 M 611.85 208.97 C 610.75 217.32 609.35 225.63 608.45 234.00 C 612.83 234.03 617.46 234.20 621.54 232.33 C 627.60 228.78 629.07 219.61 624.86 214.11 C 621.74 210.31 616.62 208.85 611.85 208.97 Z" />
<path fill="#e55853" opacity="1.00" d=" M 639.19 209.80 C 638.00 208.01 639.73 205.27 641.93 206.04 C 644.21 206.19 643.97 208.90 643.48 210.47 C 642.11 210.90 639.81 211.67 639.19 209.80 Z" />
<path fill="#e55853" opacity="1.00" d=" M 725.32 206.42 C 726.64 205.42 729.34 206.06 729.39 207.94 C 730.25 210.23 727.00 212.02 725.29 210.53 C 723.94 209.75 723.97 207.21 725.32 206.42 Z" />
<path fill="#e55853" opacity="1.00" d=" M 136.52 210.22 C 138.06 209.98 139.63 209.96 141.20 209.99 C 140.93 211.77 140.71 213.56 140.53 215.35 C 143.93 214.75 148.06 214.60 150.53 217.47 C 157.22 224.14 153.25 237.29 144.18 239.57 C 141.83 240.08 139.41 240.02 137.02 240.02 C 136.70 243.65 136.04 247.23 135.64 250.85 C 134.14 250.99 132.63 251.01 131.12 250.95 C 132.45 241.26 133.71 231.55 135.12 221.86 C 133.31 222.61 132.73 224.65 131.73 226.16 C 130.50 223.97 132.77 221.67 133.90 219.88 C 136.53 217.39 136.23 213.54 136.52 210.22 M 139.99 219.00 C 139.14 225.00 138.36 231.03 137.66 237.06 C 138.28 237.03 139.51 236.98 140.13 236.95 C 147.81 236.71 151.88 226.26 147.53 220.39 C 145.85 218.24 142.16 217.01 139.99 219.00 Z" />
<path fill="#e55853" opacity="1.00" d=" M 735.39 211.18 C 736.91 211.01 738.44 210.96 739.99 210.98 C 739.75 212.64 739.55 214.32 739.41 216.00 C 740.45 216.00 742.54 216.00 743.58 216.00 C 743.53 216.75 743.42 218.25 743.37 219.00 C 741.82 219.00 740.27 219.00 738.74 219.00 C 737.87 224.06 736.93 229.11 736.19 234.19 C 735.78 235.74 737.45 237.52 739.06 236.91 C 740.43 236.54 741.59 235.67 742.80 234.96 C 742.71 236.46 742.62 237.97 742.52 239.49 C 738.73 240.16 732.51 241.09 731.47 236.02 C 732.24 230.34 733.19 224.67 734.28 219.04 C 732.89 219.00 731.51 218.96 730.13 218.92 C 730.19 218.24 730.29 216.87 730.35 216.19 C 731.87 216.03 733.40 215.96 734.95 215.97 C 735.10 214.37 735.26 212.78 735.39 211.18 Z" />
<path fill="#e55853" opacity="1.00" d=" M 157.17 227.93 C 156.77 221.47 162.02 213.97 169.11 215.04 C 174.40 215.34 176.97 221.32 175.99 226.00 C 171.23 226.01 166.47 225.99 161.70 226.00 C 161.26 229.71 161.59 234.58 165.40 236.44 C 168.80 238.07 172.07 235.49 175.01 234.02 C 174.63 235.32 175.06 237.03 174.07 238.07 C 170.74 240.07 166.54 240.61 162.84 239.39 C 158.57 237.41 156.66 232.44 157.17 227.93 M 162.44 223.00 C 165.65 223.00 168.88 223.00 172.10 223.00 C 171.60 221.35 171.34 219.28 169.55 218.51 C 166.47 216.83 162.73 219.88 162.44 223.00 Z" />
<path fill="#e55853" opacity="1.00" d=" M 186.26 218.83 C 188.58 215.76 192.87 213.89 196.57 215.60 C 199.31 217.71 199.81 221.67 199.20 224.88 C 198.37 229.57 197.95 234.34 196.96 239.00 C 195.50 238.99 194.04 239.00 192.58 239.01 C 193.34 233.34 194.22 227.69 194.81 222.01 C 194.97 220.34 194.12 218.84 192.82 217.85 C 189.85 218.38 187.61 220.57 185.82 222.85 C 184.73 228.03 184.19 233.31 183.49 238.55 C 182.33 239.57 180.42 238.75 178.98 239.01 C 179.93 231.35 181.00 223.71 182.17 216.08 C 183.66 216.03 185.15 216.00 186.64 215.98 C 186.55 216.69 186.35 218.12 186.26 218.83 Z" />
<path fill="#e55853" opacity="1.00" d=" M 667.13 219.21 C 669.96 214.73 676.95 213.38 680.92 217.10 C 683.15 219.47 683.80 222.85 683.38 226.01 C 678.54 226.00 673.72 225.98 668.89 226.02 C 668.42 229.72 668.90 234.32 672.47 236.37 C 675.90 238.16 679.24 235.43 682.31 234.16 C 682.15 235.07 681.83 236.89 681.67 237.80 C 677.87 240.29 672.40 241.06 668.50 238.46 C 662.85 233.91 663.21 224.77 667.13 219.21 M 669.48 222.98 C 672.77 223.01 676.06 223.01 679.36 222.97 C 679.01 221.63 678.55 220.32 678.00 219.06 C 674.63 216.50 670.23 219.20 669.48 222.98 Z" />
<path fill="#e55853" opacity="1.00" d=" M 694.43 217.12 C 696.32 215.26 699.00 214.49 701.60 215.22 C 701.64 215.85 701.73 217.12 701.77 217.76 C 699.66 218.09 697.05 217.67 695.52 219.49 C 690.57 224.67 692.30 232.45 690.76 238.91 C 689.30 238.96 687.84 239.01 686.40 239.05 C 687.08 231.41 688.69 223.85 689.35 216.20 C 691.05 216.06 693.31 215.29 694.43 217.12 Z" />
<path fill="#e55853" opacity="1.00" d=" M 707.41 215.62 C 710.72 214.42 714.46 215.01 717.60 216.45 C 718.41 217.88 717.82 219.67 717.97 221.24 C 716.07 220.07 714.25 218.64 712.03 218.16 C 709.66 217.24 706.98 220.28 708.50 222.46 C 710.35 224.96 713.47 226.08 715.47 228.44 C 718.51 231.76 717.28 238.02 712.96 239.61 C 709.25 240.67 705.37 239.60 702.10 237.81 C 702.52 236.63 701.55 233.49 703.72 234.13 C 705.63 235.37 707.57 236.75 709.91 237.03 C 712.74 236.93 713.45 233.16 711.79 231.34 C 709.76 229.32 707.12 227.99 705.31 225.75 C 702.71 222.70 703.67 217.30 707.41 215.62 Z" />
<path fill="#e55853" opacity="1.00" d=" M 638.32 216.08 C 639.74 216.02 641.17 215.97 642.61 215.93 C 642.08 223.59 640.50 231.18 639.67 238.83 C 638.16 239.02 636.65 239.03 635.15 238.99 C 636.11 231.34 637.26 223.72 638.32 216.08 Z" />
<path fill="#e55853" opacity="1.00" d=" M 645.17 216.13 C 646.69 216.00 648.24 215.99 649.78 216.09 C 650.66 221.02 651.99 225.87 652.59 230.84 C 655.45 226.10 657.46 220.89 660.04 215.99 C 661.54 215.99 663.04 216.00 664.55 216.01 C 660.74 224.05 656.84 232.06 652.94 240.06 C 652.30 240.01 651.04 239.92 650.41 239.87 C 648.63 231.97 647.17 223.98 645.17 216.13 Z" />
<path fill="#e55853" opacity="1.00" d=" M 723.58 216.25 C 725.14 215.93 726.74 215.97 728.35 215.99 C 727.15 223.65 726.28 231.37 725.03 239.01 C 723.54 239.00 722.07 239.00 720.60 239.00 C 721.54 231.41 722.97 223.88 723.58 216.25 Z" />
<path fill="#e55853" opacity="1.00" d=" M 744.41 215.96 C 745.90 215.99 747.40 216.03 748.90 216.09 C 749.90 221.07 750.82 226.07 751.93 231.03 C 754.80 226.37 756.64 221.02 758.96 216.01 C 760.58 216.00 762.22 216.02 763.86 216.07 C 758.28 227.52 752.95 239.10 747.59 250.66 C 746.05 251.36 744.25 250.85 742.63 251.01 C 744.45 246.60 746.80 242.42 748.61 238.01 C 747.69 230.59 745.61 223.34 744.41 215.96 Z" />
<path fill="#e55853" opacity="1.00" d=" M 234.19 423.21 C 250.52 395.06 266.83 366.91 283.18 338.78 C 304.68 375.99 326.42 413.06 347.99 450.24 C 304.97 450.07 261.93 450.37 218.91 450.09 C 223.51 440.88 229.18 432.21 234.19 423.21 Z" />
<path fill="#e55853" opacity="1.00" d=" M 500.44 346.40 C 501.95 343.64 503.39 340.77 505.71 338.57 C 526.03 373.55 546.30 408.57 566.62 443.55 C 567.84 445.69 569.28 447.74 570.08 450.10 C 526.73 450.35 483.36 450.08 440.01 450.24 C 460.14 415.62 480.34 381.04 500.44 346.40 Z" />
<path fill="#e55853" opacity="1.00" d=" M 298.38 550.13 C 300.08 550.01 301.79 549.96 303.50 549.99 C 301.79 561.61 300.28 573.27 298.63 584.91 C 296.95 584.98 295.27 585.00 293.60 585.02 C 295.29 573.41 297.03 561.78 298.38 550.13 Z" />
<path fill="#e55853" opacity="1.00" d=" M 354.03 550.03 C 355.50 550.00 356.98 549.99 358.46 549.98 C 356.96 561.63 355.19 573.25 353.64 584.89 C 352.14 584.97 350.63 585.00 349.13 584.97 C 350.73 573.32 352.35 561.66 354.03 550.03 Z" />
<path fill="#e55853" opacity="1.00" d=" M 405.22 552.25 C 408.84 550.02 410.94 556.71 406.97 557.04 C 404.16 557.68 403.11 553.60 405.22 552.25 Z" />
<path fill="#e55853" opacity="1.00" d=" M 433.34 552.48 C 435.78 550.54 439.13 553.78 437.15 556.19 C 434.79 558.89 430.57 554.95 433.34 552.48 Z" />
<path fill="#e55853" opacity="1.00" d=" M 443.15 561.99 C 443.45 560.37 443.10 558.54 443.92 557.08 C 445.40 556.98 446.88 556.95 448.38 556.98 C 448.00 558.63 447.72 560.31 447.57 562.01 C 448.59 562.00 450.64 561.97 451.66 561.96 C 451.64 562.72 451.59 564.25 451.56 565.01 C 450.00 565.00 448.44 565.00 446.88 565.01 C 446.32 570.41 444.81 575.67 444.44 581.09 C 445.37 584.52 449.15 582.31 451.03 581.04 C 450.92 582.54 450.79 584.05 450.65 585.56 C 446.97 586.10 440.79 587.08 439.87 582.11 C 440.24 576.33 441.72 570.71 442.41 564.98 C 441.41 565.00 439.41 565.06 438.42 565.09 C 438.48 564.32 438.62 562.78 438.69 562.01 C 440.17 562.00 441.66 561.99 443.15 561.99 Z" />
<path fill="#e55853" opacity="1.00" d=" M 312.47 564.70 C 314.48 562.65 316.98 560.74 320.03 560.98 C 324.15 560.72 326.02 565.52 325.63 568.97 C 325.06 574.34 324.08 579.69 323.24 585.03 C 321.81 585.00 320.38 584.99 318.96 584.99 C 319.54 579.30 320.37 573.63 321.19 567.97 C 321.27 566.27 320.22 564.00 318.29 564.02 C 315.55 564.70 313.72 567.03 311.93 569.03 C 311.09 574.30 310.37 579.59 309.64 584.88 C 308.13 584.99 306.62 585.00 305.12 584.96 C 306.29 577.34 307.28 569.70 308.38 562.08 C 309.85 562.02 311.32 561.99 312.80 561.97 C 312.69 562.88 312.58 563.79 312.47 564.70 Z" />
<path fill="#e55853" opacity="1.00" d=" M 335.77 562.77 C 339.39 560.73 343.82 560.61 347.80 561.44 C 347.58 562.19 347.13 563.67 346.90 564.41 C 342.47 563.17 337.31 564.90 335.03 569.01 C 333.14 571.59 333.19 574.95 333.60 577.99 C 334.01 581.01 336.98 583.23 339.97 583.03 C 342.02 582.70 343.89 581.75 345.83 581.08 C 345.67 582.72 345.73 585.15 343.54 585.43 C 339.17 586.57 333.47 586.40 330.70 582.27 C 326.30 575.89 329.14 566.42 335.77 562.77 Z" />
<path fill="#e55853" opacity="1.00" d=" M 383.66 566.04 C 385.13 559.73 393.05 560.32 397.68 562.50 C 397.78 564.18 397.78 565.87 397.74 567.56 C 395.86 565.80 393.57 564.46 391.04 563.93 C 389.36 563.99 387.94 565.44 387.66 567.06 C 388.96 570.98 393.76 571.85 395.81 575.22 C 398.06 578.63 396.80 584.15 392.76 585.58 C 389.02 586.74 385.16 585.48 381.76 583.90 C 381.95 582.58 382.15 581.27 382.35 579.97 C 385.26 580.41 387.57 583.89 390.74 582.68 C 393.39 581.69 392.74 577.74 390.61 576.49 C 387.28 573.92 382.39 571.04 383.66 566.04 Z" />
<path fill="#e55853" opacity="1.00" d=" M 359.53 579.04 C 360.04 573.32 361.11 567.66 361.79 561.97 C 363.31 561.98 364.83 562.00 366.36 562.00 C 365.50 567.32 364.81 572.68 364.04 578.02 C 363.84 579.95 364.29 583.15 366.89 583.00 C 370.19 581.67 373.78 579.00 373.72 575.08 C 374.25 570.76 374.97 566.45 375.37 562.12 C 376.87 562.00 378.38 561.99 379.89 562.07 C 378.83 569.69 377.76 577.31 376.68 584.93 C 375.23 584.97 373.80 585.01 372.36 585.05 C 372.43 584.36 372.57 582.96 372.64 582.27 C 370.54 584.25 368.01 586.23 364.93 586.04 C 361.40 586.04 359.19 582.25 359.53 579.04 Z" />
<path fill="#e55853" opacity="1.00" d=" M 403.40 562.17 C 404.92 562.02 406.44 561.96 407.97 561.98 C 407.12 569.63 405.91 577.25 404.85 584.88 C 403.37 584.96 401.89 585.01 400.41 585.04 C 401.21 577.40 402.71 569.82 403.40 562.17 Z" />
<path fill="#e55853" opacity="1.00" d=" M 410.52 562.00 C 411.99 561.99 413.47 562.00 414.95 562.01 C 416.39 566.61 416.14 571.96 418.56 576.12 C 420.57 571.34 423.05 566.78 425.21 562.07 C 426.75 562.00 428.30 562.00 429.86 562.06 C 426.15 569.68 422.38 577.28 418.80 584.97 C 418.51 586.27 416.20 586.50 415.58 585.54 C 413.90 577.69 412.22 569.84 410.52 562.00 Z" />
<path fill="#e55853" opacity="1.00" d=" M 432.16 562.01 C 433.62 562.00 435.09 561.99 436.56 561.99 C 435.65 569.60 434.20 577.15 433.55 584.78 C 432.03 584.99 430.50 585.03 428.98 585.02 C 429.82 577.33 430.95 569.66 432.16 562.01 Z" />
<path fill="#e55853" opacity="1.00" d=" M 452.61 562.00 C 454.12 561.99 455.65 562.00 457.17 562.01 C 458.07 567.01 459.14 571.98 460.12 576.96 L 460.74 576.58 C 462.85 571.74 465.15 566.98 467.17 562.10 C 468.78 561.99 470.41 561.98 472.04 562.05 C 466.63 573.64 461.06 585.15 455.81 596.81 C 454.17 597.04 452.51 597.02 450.87 596.95 C 452.85 592.59 454.89 588.25 457.03 583.96 C 455.63 576.62 454.07 569.32 452.61 562.00 Z" />
</g>
<g id="#c4444bff">
<path fill="#c4444b" opacity="1.00" d=" M 314.51 284.52 C 326.84 263.42 338.96 242.17 351.37 221.12 C 355.14 222.37 359.13 221.72 363.02 221.80 C 386.69 221.86 410.36 221.80 434.04 221.82 C 435.24 221.72 436.43 221.51 437.61 221.20 C 453.79 248.52 469.50 276.16 485.56 303.57 C 492.19 315.28 499.21 326.79 505.71 338.57 C 503.39 340.77 501.95 343.64 500.44 346.40 C 480.34 381.04 460.14 415.62 440.01 450.24 C 409.34 450.35 378.66 450.35 347.99 450.24 C 326.42 413.06 304.68 375.99 283.18 338.78 C 293.39 320.58 304.12 302.64 314.51 284.52 M 357.22 305.17 C 350.06 308.86 345.20 316.86 345.99 324.99 C 345.48 334.43 353.12 342.98 362.22 344.67 C 369.20 345.61 376.47 344.94 382.88 341.87 C 382.91 335.92 382.86 329.97 382.90 324.02 C 378.30 323.99 373.70 323.98 369.10 324.03 C 369.10 325.67 369.10 327.32 369.09 328.97 C 371.72 329.01 374.36 329.00 376.99 329.00 C 377.00 331.99 377.01 334.99 376.98 337.99 C 370.59 340.68 362.51 340.83 357.16 335.87 C 351.67 331.02 350.61 322.36 354.15 316.07 C 357.35 310.00 364.97 306.72 371.58 308.54 C 375.29 308.90 378.62 310.62 381.98 312.10 C 381.99 310.42 382.00 308.74 382.04 307.07 C 374.73 302.53 365.06 301.34 357.22 305.17 M 404.47 309.58 C 403.54 313.49 403.43 318.38 406.81 321.22 C 410.87 325.92 418.55 326.84 420.87 333.07 C 422.15 337.69 416.33 341.33 412.35 339.51 C 408.84 338.88 406.55 336.08 404.04 333.84 C 403.96 336.19 404.00 338.55 404.02 340.91 C 408.35 344.90 414.84 346.19 420.33 344.17 C 426.65 341.50 428.78 332.78 424.77 327.33 C 421.37 321.74 413.93 320.92 410.11 315.77 C 408.97 313.47 409.22 309.93 412.03 309.03 C 416.44 306.54 421.55 309.34 425.00 312.27 C 425.00 309.88 424.99 307.49 425.00 305.10 C 418.43 301.42 407.89 301.80 404.47 309.58 M 391.08 304.04 C 391.13 317.35 391.13 330.65 391.08 343.96 C 393.05 344.00 395.02 344.01 397.00 344.00 C 397.00 330.67 397.00 317.34 397.00 304.01 C 395.02 303.99 393.05 304.00 391.08 304.04 Z" />
</g>
</svg>
