<?xml version="1.0" encoding="UTF-8" ?>
<!DOCTYPE svg PUBLIC "-//W3C//DTD SVG 1.1//EN" "http://www.w3.org/Graphics/SVG/1.1/DTD/svg11.dtd">
<svg width="720pt" height="720pt" viewBox="0 0 720 720" version="1.1" xmlns="http://www.w3.org/2000/svg">
<g id="#75d5ebff">
<path fill="#75d5eb" opacity="1.00" d=" M 0.00 0.00 L 0.17 0.00 C 0.13 0.04 0.04 0.13 0.00 0.17 L 0.00 0.00 Z" />
<path fill="#75d5eb" opacity="1.00" d=" M 175.34 324.41 C 172.54 299.89 171.83 274.38 175.86 249.87 C 237.29 312.85 298.34 376.28 360.14 438.86 C 422.25 378.34 481.50 313.31 543.69 252.36 C 548.33 276.31 547.40 301.39 544.66 325.45 C 483.11 388.07 422.20 451.33 360.74 514.05 C 298.33 451.49 237.46 387.30 175.34 324.41 Z" />
</g>
<g id="#dcdcdcff">
<path fill="#dcdcdc" opacity="1.00" d=" M 331.53 63.40 C 362.15 59.81 393.74 61.41 423.28 71.71 C 511.49 100.85 569.26 191.80 570.04 282.79 C 582.02 282.78 594.00 282.71 605.99 282.82 C 606.03 306.21 605.97 329.60 606.01 352.99 C 615.72 353.00 625.44 353.02 635.15 352.98 C 635.28 323.45 635.10 293.92 635.24 264.39 C 659.21 264.24 683.18 264.75 707.14 264.87 C 714.56 290.50 717.86 317.07 720.00 343.59 L 720.00 376.37 C 715.80 454.23 686.81 530.74 636.52 590.53 C 572.96 667.70 476.08 715.10 376.41 720.00 L 343.63 720.00 C 239.63 715.00 138.78 663.40 75.45 580.53 C 29.97 522.39 4.05 449.97 0.00 376.42 L 0.00 343.62 C 1.78 324.31 3.36 304.88 7.80 285.95 C 19.83 285.86 31.86 286.34 43.89 286.12 C 43.81 277.99 43.96 269.86 44.04 261.73 C 52.40 261.64 60.77 261.62 69.12 261.77 C 69.71 248.23 69.29 234.67 69.33 221.12 C 72.58 221.00 75.84 220.98 79.10 221.01 C 79.23 234.57 79.03 248.14 79.19 261.70 C 87.92 261.68 96.65 261.63 105.37 261.72 C 105.58 269.78 105.51 277.85 105.39 285.92 C 114.16 286.51 122.94 286.01 131.72 286.21 C 132.12 322.00 130.80 357.91 132.40 393.62 C 143.26 393.82 154.12 393.70 164.98 393.68 C 153.69 350.47 146.48 305.45 151.62 261.00 C 159.63 165.37 235.09 77.15 331.53 63.40 M 340.90 87.97 C 277.65 91.67 220.74 137.57 195.01 194.60 C 184.74 211.34 180.27 230.93 175.86 249.87 C 171.83 274.38 172.54 299.89 175.34 324.41 C 178.53 359.39 187.61 394.30 201.32 426.53 C 203.52 436.05 208.27 445.04 212.02 454.15 C 248.71 532.24 301.19 601.67 359.47 664.46 C 377.72 649.14 392.43 628.40 408.18 610.17 C 451.93 554.35 493.44 495.22 518.63 428.27 C 531.89 395.81 540.79 360.58 544.66 325.45 C 547.40 301.39 548.33 276.31 543.69 252.36 C 541.38 232.28 534.24 212.90 526.02 194.56 C 494.68 125.24 417.23 76.02 340.90 87.97 M 53.13 271.26 C 52.88 276.21 52.95 281.17 53.02 286.13 C 67.42 286.25 81.82 286.27 96.21 286.12 C 96.32 281.16 96.58 276.18 96.04 271.23 C 81.74 271.38 67.44 271.34 53.13 271.26 M 645.25 276.08 C 645.37 288.98 645.24 301.88 645.33 314.78 C 645.24 327.47 645.40 340.16 645.25 352.86 C 663.48 353.17 681.73 352.93 699.97 352.98 C 699.46 340.20 698.81 327.42 696.93 314.76 C 695.36 301.74 692.55 288.92 689.60 276.15 C 674.84 275.66 660.02 275.79 645.25 276.08 M 570.08 294.18 C 570.43 301.17 569.57 307.97 568.50 314.76 C 567.49 341.81 561.70 368.48 554.62 394.56 C 546.99 422.18 536.05 448.76 524.04 474.78 C 511.42 503.00 493.00 528.41 479.03 555.71 C 479.06 566.37 478.76 577.03 479.21 587.68 C 510.73 587.41 542.28 588.67 573.79 587.94 C 573.72 577.20 573.83 566.45 573.65 555.71 C 573.72 528.86 573.73 502.00 573.65 475.15 C 573.73 448.16 573.66 421.18 573.68 394.20 C 573.83 380.48 573.42 366.76 573.89 353.05 C 581.24 352.89 588.59 353.09 595.95 352.96 C 595.93 340.08 595.96 327.21 595.93 314.33 C 595.95 307.62 595.96 300.91 595.86 294.20 C 587.27 294.21 578.67 294.24 570.08 294.18 M 29.92 297.86 C 29.62 303.49 29.74 309.13 29.85 314.76 C 29.71 341.24 29.67 367.73 29.85 394.21 C 29.06 421.54 28.10 449.52 40.13 474.87 C 50.16 503.45 64.26 530.69 81.89 555.32 C 87.16 563.01 92.52 570.82 99.14 577.41 C 99.52 570.02 99.36 562.61 99.24 555.22 C 99.44 536.88 99.35 518.53 99.28 500.19 C 106.75 499.83 114.24 500.40 121.70 499.84 C 121.36 491.46 122.02 483.06 121.35 474.71 C 121.51 447.88 121.49 421.04 121.36 394.21 C 121.53 367.73 121.47 341.25 121.39 314.77 C 121.53 309.13 121.71 303.49 121.30 297.86 C 90.84 297.72 60.38 297.72 29.92 297.86 M 584.05 365.07 C 583.97 374.78 583.96 384.49 584.06 394.20 C 584.00 421.18 583.89 448.17 584.11 475.15 C 583.92 502.00 583.95 528.85 584.10 555.70 C 583.92 575.59 583.99 595.48 584.10 615.36 C 604.26 597.99 622.91 578.14 637.30 555.75 L 637.92 555.78 C 655.44 530.87 669.85 503.66 679.86 474.87 C 689.48 448.95 695.48 421.66 698.19 394.14 C 699.44 384.51 699.56 374.78 699.99 365.08 C 661.34 365.11 622.69 365.05 584.05 365.07 M 132.85 405.13 C 132.56 428.61 132.61 452.12 132.82 475.61 C 132.62 483.38 132.61 491.16 132.82 498.94 C 157.89 498.84 182.96 499.17 208.02 498.77 C 204.49 490.83 200.15 483.24 196.22 475.48 C 185.39 452.60 176.57 428.93 167.93 405.18 C 156.23 405.13 144.54 405.23 132.85 405.13 M 109.65 513.86 C 109.43 527.80 109.47 541.76 109.64 555.70 C 109.62 567.08 109.24 578.51 109.80 589.87 C 124.86 606.87 142.09 622.25 160.77 635.16 C 182.54 651.68 206.95 664.76 232.26 675.00 C 232.68 661.72 232.46 648.41 232.37 635.12 C 232.57 608.65 232.52 582.17 232.39 555.70 C 236.00 539.67 224.41 526.84 216.92 514.28 C 181.27 513.16 145.39 513.99 109.65 513.86 M 243.11 556.88 C 242.22 577.91 242.80 599.03 242.81 620.09 C 258.52 620.07 274.26 620.61 289.94 619.78 C 272.60 600.24 258.68 577.86 243.11 556.88 M 455.24 587.81 C 460.11 588.08 464.98 588.37 469.86 588.11 C 469.79 581.06 470.05 574.01 469.62 566.98 C 465.56 574.42 459.51 580.51 455.24 587.81 M 446.41 599.45 C 440.50 612.44 424.28 620.56 423.03 635.12 C 423.00 654.76 422.94 674.40 423.06 694.04 C 471.99 684.81 519.26 664.95 559.22 635.14 C 564.44 631.99 569.48 628.21 573.81 623.95 C 574.17 615.76 574.09 607.52 573.79 599.32 C 531.33 599.58 488.87 599.32 446.41 599.45 M 242.99 631.74 C 243.00 633.09 243.02 634.44 243.05 635.80 C 242.94 650.22 243.03 664.65 242.99 679.07 C 279.67 692.81 318.94 699.98 358.12 699.82 C 339.84 678.15 320.25 657.57 302.24 635.64 C 301.32 633.53 299.62 631.31 297.03 631.65 C 279.02 631.66 261.00 631.49 242.99 631.74 M 361.88 699.82 C 378.98 700.15 396.06 698.39 412.95 695.90 C 412.90 677.92 413.30 659.92 412.74 641.94 C 395.71 661.14 378.99 680.65 361.88 699.82 Z" />
<path fill="#dcdcdc" opacity="1.00" d=" M 351.38 173.46 C 384.40 169.09 418.53 189.77 430.01 221.00 C 441.61 249.95 432.60 285.67 408.30 305.30 C 389.47 321.74 361.97 327.19 338.16 319.77 C 308.56 311.24 286.32 282.79 285.05 252.02 C 282.11 213.65 313.14 177.06 351.38 173.46 M 352.35 188.44 C 325.70 191.51 303.08 214.39 300.35 241.08 C 295.94 272.61 320.76 304.17 352.36 307.56 C 386.87 313.01 421.02 282.89 420.03 248.00 C 421.02 213.11 386.86 182.99 352.35 188.44 Z" />
</g>
<g id="#ffffffff">
<path fill="#ffffff" opacity="1.00" d=" M 340.90 87.97 C 417.23 76.02 494.68 125.24 526.02 194.56 C 471.80 250.81 417.06 306.57 362.65 362.64 C 361.46 364.33 359.53 364.33 358.35 362.64 C 303.95 306.58 249.23 250.83 195.01 194.60 C 220.74 137.57 277.65 91.67 340.90 87.97 M 351.38 173.46 C 313.14 177.06 282.11 213.65 285.05 252.02 C 286.32 282.79 308.56 311.24 338.16 319.77 C 361.97 327.19 389.47 321.74 408.30 305.30 C 432.60 285.67 441.61 249.95 430.01 221.00 C 418.53 189.77 384.40 169.09 351.38 173.46 Z" />
</g>
<g id="#b5b1b1ff">
<path fill="#b5b1b1" opacity="1.00" d=" M 352.35 188.44 C 386.86 182.99 421.02 213.11 420.03 248.00 C 421.02 282.89 386.87 313.01 352.36 307.56 C 320.76 304.17 295.94 272.61 300.35 241.08 C 303.08 214.39 325.70 191.51 352.35 188.44 Z" />
</g>
<g id="#fdafc7ff">
<path fill="#fdafc7" opacity="1.00" d=" M 175.86 249.87 C 180.27 230.93 184.74 211.34 195.01 194.60 C 249.23 250.83 303.95 306.58 358.35 362.64 C 359.53 364.33 361.46 364.33 362.65 362.64 C 417.06 306.57 471.80 250.81 526.02 194.56 C 534.24 212.90 541.38 232.28 543.69 252.36 C 481.50 313.31 422.25 378.34 360.14 438.86 C 298.34 376.28 237.29 312.85 175.86 249.87 Z" />
</g>
<g id="#e50000ff">
<path fill="#e50000" opacity="1.00" d=" M 53.13 271.26 C 67.44 271.34 81.74 271.38 96.04 271.23 C 96.58 276.18 96.32 281.16 96.21 286.12 C 81.82 286.27 67.42 286.25 53.02 286.13 C 52.95 281.17 52.88 276.21 53.13 271.26 Z" />
<path fill="#e50000" opacity="1.00" d=" M 645.25 276.08 C 660.02 275.79 674.84 275.66 689.60 276.15 C 692.55 288.92 695.36 301.74 696.93 314.76 C 679.73 314.56 662.52 314.53 645.33 314.78 C 645.24 301.88 645.37 288.98 645.25 276.08 Z" />
<path fill="#e50000" opacity="1.00" d=" M 570.08 294.18 C 578.67 294.24 587.27 294.21 595.86 294.20 C 595.96 300.91 595.95 307.62 595.93 314.33 C 586.80 315.03 577.64 314.36 568.50 314.76 C 569.57 307.97 570.43 301.17 570.08 294.18 Z" />
<path fill="#e50000" opacity="1.00" d=" M 29.92 297.86 C 60.38 297.72 90.84 297.72 121.30 297.86 C 121.71 303.49 121.53 309.13 121.39 314.77 C 90.88 314.54 60.36 314.55 29.85 314.76 C 29.74 309.13 29.62 303.49 29.92 297.86 Z" />
</g>
<g id="#ff8d00ff">
<path fill="#ff8d00" opacity="1.00" d=" M 568.50 314.76 C 577.64 314.36 586.80 315.03 595.93 314.33 C 595.96 327.21 595.93 340.08 595.95 352.96 C 588.59 353.09 581.24 352.89 573.89 353.05 C 573.42 366.76 573.83 380.48 573.68 394.20 C 567.33 394.43 560.97 394.23 554.62 394.56 C 561.70 368.48 567.49 341.81 568.50 314.76 Z" />
<path fill="#ff8d00" opacity="1.00" d=" M 29.85 314.76 C 60.36 314.55 90.88 314.54 121.39 314.77 C 121.47 341.25 121.53 367.73 121.36 394.21 C 90.86 394.44 60.35 394.44 29.85 394.21 C 29.67 367.73 29.71 341.24 29.85 314.76 Z" />
<path fill="#ff8d00" opacity="1.00" d=" M 645.33 314.78 C 662.52 314.53 679.73 314.56 696.93 314.76 C 698.81 327.42 699.46 340.20 699.97 352.98 C 681.73 352.93 663.48 353.17 645.25 352.86 C 645.40 340.16 645.24 327.47 645.33 314.78 Z" />
<path fill="#ff8d00" opacity="1.00" d=" M 584.05 365.07 C 622.69 365.05 661.34 365.11 699.99 365.08 C 699.56 374.78 699.44 384.51 698.19 394.14 C 660.15 394.52 622.10 394.41 584.06 394.20 C 583.96 384.49 583.97 374.78 584.05 365.07 Z" />
</g>
<g id="#603814ff">
<path fill="#603814" opacity="1.00" d=" M 175.34 324.41 C 237.46 387.30 298.33 451.49 360.74 514.05 C 422.20 451.33 483.11 388.07 544.66 325.45 C 540.79 360.58 531.89 395.81 518.63 428.27 C 464.39 480.12 413.68 536.14 360.25 589.02 C 307.22 534.92 255.11 479.80 201.32 426.53 C 187.61 394.30 178.53 359.39 175.34 324.41 Z" />
</g>
<g id="#ffee00ff">
<path fill="#ffee00" opacity="1.00" d=" M 29.85 394.21 C 60.35 394.44 90.86 394.44 121.36 394.21 C 121.49 421.04 121.51 447.88 121.35 474.71 C 94.32 475.67 67.18 475.36 40.13 474.87 C 28.10 449.52 29.06 421.54 29.85 394.21 Z" />
<path fill="#ffee00" opacity="1.00" d=" M 554.62 394.56 C 560.97 394.23 567.33 394.43 573.68 394.20 C 573.66 421.18 573.73 448.16 573.65 475.15 C 557.12 475.08 540.55 475.71 524.04 474.78 C 536.05 448.76 546.99 422.18 554.62 394.56 Z" />
<path fill="#ffee00" opacity="1.00" d=" M 584.06 394.20 C 622.10 394.41 660.15 394.52 698.19 394.14 C 695.48 421.66 689.48 448.95 679.86 474.87 C 647.96 475.64 616.02 475.10 584.11 475.15 C 583.89 448.17 584.00 421.18 584.06 394.20 Z" />
<path fill="#ffee00" opacity="1.00" d=" M 132.85 405.13 C 144.54 405.23 156.23 405.13 167.93 405.18 C 176.57 428.93 185.39 452.60 196.22 475.48 C 175.08 475.59 153.95 475.35 132.82 475.61 C 132.61 452.12 132.56 428.61 132.85 405.13 Z" />
</g>
<g id="#000000ff">
<path fill="#000000" opacity="1.00" d=" M 201.32 426.53 C 255.11 479.80 307.22 534.92 360.25 589.02 C 413.68 536.14 464.39 480.12 518.63 428.27 C 493.44 495.22 451.93 554.35 408.18 610.17 C 392.43 628.40 377.72 649.14 359.47 664.46 C 301.19 601.67 248.71 532.24 212.02 454.15 C 208.27 445.04 203.52 436.05 201.32 426.53 Z" />
</g>
<g id="#008121ff">
<path fill="#008121" opacity="1.00" d=" M 40.13 474.87 C 67.18 475.36 94.32 475.67 121.35 474.71 C 122.02 483.06 121.36 491.46 121.70 499.84 C 114.24 500.40 106.75 499.83 99.28 500.19 C 99.35 518.53 99.44 536.88 99.24 555.22 C 93.46 555.37 87.67 555.30 81.89 555.32 C 64.26 530.69 50.16 503.45 40.13 474.87 Z" />
<path fill="#008121" opacity="1.00" d=" M 479.03 555.71 C 493.00 528.41 511.42 503.00 524.04 474.78 C 540.55 475.71 557.12 475.08 573.65 475.15 C 573.73 502.00 573.72 528.86 573.65 555.71 C 542.11 555.49 510.57 555.49 479.03 555.71 Z" />
<path fill="#008121" opacity="1.00" d=" M 584.11 475.15 C 616.02 475.10 647.96 475.64 679.86 474.87 C 669.85 503.66 655.44 530.87 637.92 555.78 L 637.30 555.75 C 619.57 555.44 601.83 555.52 584.10 555.70 C 583.95 528.85 583.92 502.00 584.11 475.15 Z" />
<path fill="#008121" opacity="1.00" d=" M 132.82 475.61 C 153.95 475.35 175.08 475.59 196.22 475.48 C 200.15 483.24 204.49 490.83 208.02 498.77 C 182.96 499.17 157.89 498.84 132.82 498.94 C 132.61 491.16 132.62 483.38 132.82 475.61 Z" />
<path fill="#008121" opacity="1.00" d=" M 109.65 513.86 C 145.39 513.99 181.27 513.16 216.92 514.28 C 224.41 526.84 236.00 539.67 232.39 555.70 C 191.48 555.49 150.55 555.50 109.64 555.70 C 109.47 541.76 109.43 527.80 109.65 513.86 Z" />
</g>
<g id="#004cffff">
<path fill="#004cff" opacity="1.00" d=" M 81.89 555.32 C 87.67 555.30 93.46 555.37 99.24 555.22 C 99.36 562.61 99.52 570.02 99.14 577.41 C 92.52 570.82 87.16 563.01 81.89 555.32 Z" />
<path fill="#004cff" opacity="1.00" d=" M 109.64 555.70 C 150.55 555.50 191.48 555.49 232.39 555.70 C 232.52 582.17 232.57 608.65 232.37 635.12 C 208.51 635.24 184.64 635.16 160.77 635.16 C 142.09 622.25 124.86 606.87 109.80 589.87 C 109.24 578.51 109.62 567.08 109.64 555.70 Z" />
<path fill="#004cff" opacity="1.00" d=" M 479.03 555.71 C 510.57 555.49 542.11 555.49 573.65 555.71 C 573.83 566.45 573.72 577.20 573.79 587.94 C 542.28 588.67 510.73 587.41 479.21 587.68 C 478.76 577.03 479.06 566.37 479.03 555.71 Z" />
<path fill="#004cff" opacity="1.00" d=" M 584.10 555.70 C 601.83 555.52 619.57 555.44 637.30 555.75 C 622.91 578.14 604.26 597.99 584.10 615.36 C 583.99 595.48 583.92 575.59 584.10 555.70 Z" />
<path fill="#004cff" opacity="1.00" d=" M 243.11 556.88 C 258.68 577.86 272.60 600.24 289.94 619.78 C 274.26 620.61 258.52 620.07 242.81 620.09 C 242.80 599.03 242.22 577.91 243.11 556.88 Z" />
<path fill="#004cff" opacity="1.00" d=" M 446.41 599.45 C 488.87 599.32 531.33 599.58 573.79 599.32 C 574.09 607.52 574.17 615.76 573.81 623.95 C 569.48 628.21 564.44 631.99 559.22 635.14 C 513.83 635.19 468.43 635.22 423.03 635.12 C 424.28 620.56 440.50 612.44 446.41 599.45 Z" />
</g>
<g id="#004cfeff">
<path fill="#004cfe" opacity="1.00" d=" M 455.24 587.81 C 459.51 580.51 465.56 574.42 469.62 566.98 C 470.05 574.01 469.79 581.06 469.86 588.11 C 464.98 588.37 460.11 588.08 455.24 587.81 Z" />
</g>
<g id="#2438d9ff">
<path fill="#2438d9" opacity="1.00" d=" M 242.99 631.74 C 261.00 631.49 279.02 631.66 297.03 631.65 C 299.62 631.31 301.32 633.53 302.24 635.64 C 282.51 635.76 262.77 635.45 243.05 635.80 C 243.02 634.44 243.00 633.09 242.99 631.74 Z" />
</g>
<g id="#760188ff">
<path fill="#760188" opacity="1.00" d=" M 160.77 635.16 C 184.64 635.16 208.51 635.24 232.37 635.12 C 232.46 648.41 232.68 661.72 232.26 675.00 C 206.95 664.76 182.54 651.68 160.77 635.16 Z" />
<path fill="#760188" opacity="1.00" d=" M 423.03 635.12 C 468.43 635.22 513.83 635.19 559.22 635.14 C 519.26 664.95 471.99 684.81 423.06 694.04 C 422.94 674.40 423.00 654.76 423.03 635.12 Z" />
<path fill="#760188" opacity="1.00" d=" M 243.05 635.80 C 262.77 635.45 282.51 635.76 302.24 635.64 C 320.25 657.57 339.84 678.15 358.12 699.82 C 318.94 699.98 279.67 692.81 242.99 679.07 C 243.03 664.65 242.94 650.22 243.05 635.80 Z" />
<path fill="#760188" opacity="1.00" d=" M 361.88 699.82 C 378.99 680.65 395.71 661.14 412.74 641.94 C 413.30 659.92 412.90 677.92 412.95 695.90 C 396.06 698.39 378.98 700.15 361.88 699.82 Z" />
</g>
</svg>
